<?xml version="1.0" encoding="UTF-8"?>
<svg width="116px" height="37px" viewBox="0 0 116 37" version="1.1" xmlns="http://www.w3.org/2000/svg" xmlns:xlink="http://www.w3.org/1999/xlink">
    <!-- Generator: Sketch 59 (86127) - https://sketch.com -->
    <title>Group 24</title>
    <desc>Created with Sketch.</desc>
    <defs>
        <polygon id="path-1" points="0.0687835777 0.1258 8.55780645 0.1258 8.55780645 14.5775248 0.0687835777 14.5775248"></polygon>
        <polygon id="path-3" points="0.0632727273 0.156146789 35.1432375 0.156146789 35.1432375 36.6605505 0.0632727273 36.6605505"></polygon>
    </defs>
    <g id="Page-1" stroke="none" stroke-width="1" fill="none" fill-rule="evenodd">
        <g id="Home-Copy" transform="translate(-60.000000, -3568.000000)">
            <g id="Group-24" transform="translate(60.000000, 3568.000000)">
                <path d="M81.8256176,15.4753688 L83.6193654,15.4753688 L83.6193654,18.0989743 L86.6465912,18.0989743 L86.6465912,19.7744972 L83.6193654,19.7744972 L83.6193654,24.0132037 C83.6193654,24.8068367 83.8149666,25.386956 84.2048082,25.7535615 C84.5960106,26.1205064 85.2195531,26.3038092 86.0754358,26.3038092 L86.6465912,26.3038092 L86.6465912,27.9993596 L86.054685,27.9993596 C84.6419343,27.9993596 83.5836469,27.6931761 82.880163,27.0808092 C82.1770194,26.4684422 81.8256176,25.5464972 81.8256176,24.3156532 L81.8256176,15.4753688 Z" id="Fill-1" fill="#727475"></path>
                <path d="M105.989098,19.7945587 L105.214857,19.7945587 C103.957567,19.7945587 102.955749,20.0925954 102.208382,20.6876505 C101.460676,21.283045 101.087503,22.0753202 101.087503,23.0644761 C101.087503,24.0465037 101.462377,24.8357239 102.213145,25.4307789 C102.963573,26.0261734 103.964711,26.3242101 105.214857,26.3242101 L105.989098,26.3242101 L105.989098,27.9993936 L105.092394,27.9993936 C103.30511,27.9993936 101.880453,27.5469073 100.817063,26.6419349 C99.7536727,25.7369624 99.2219777,24.5346321 99.2219777,23.0342651 C99.2219777,22.2267147 99.4124762,21.4731367 99.792793,20.7738706 C100.17311,20.0735862 100.713649,19.4853202 101.413051,19.0070358 C101.902224,18.6842193 102.422353,18.4520358 102.972418,18.3108248 C103.522822,18.1696138 104.229028,18.0990083 105.092394,18.0990083 L105.989098,18.0990083 L105.989098,19.7945587 Z" id="Fill-3" fill="#727475"></path>
                <g id="Group-7" transform="translate(107.155425, 13.421835)">
                    <mask id="mask-2" fill="white">
                        <use xlink:href="#path-1"></use>
                    </mask>
                    <g id="Clip-6"></g>
                    <path d="M0.0687835777,14.5775248 L0.0687835777,0.1258 L1.86185103,0.1258 L1.86185103,5.62590092 C2.27652551,5.23587339 2.71297126,4.94632294 3.17186862,4.75792844 C3.63042581,4.56987339 4.11755777,4.47516697 4.63428504,4.47516697 C5.87728798,4.47516697 6.84202698,4.88284587 7.52850205,5.69684587 C8.21463695,6.51050642 8.55787449,7.65750642 8.55787449,9.13818532 L8.55787449,14.5775248 L6.76480704,14.5775248 L6.76480704,8.8557633 C6.76480704,8.0074789 6.55832023,7.35505688 6.14772786,6.8974789 C5.73611496,6.43990092 5.15033196,6.21145138 4.38935836,6.21145138 C3.64233196,6.21145138 3.03409736,6.48742385 2.56567507,7.03868991 C2.09657243,7.59029541 1.86185103,8.32045138 1.86185103,9.22881835 L1.86185103,14.5775248 L0.0687835777,14.5775248 Z" id="Fill-5" fill="#727475" mask="url(#mask-2)"></path>
                </g>
                <path d="M92.9544399,19.7306064 C94.3978065,19.7306064 95.6183578,20.7129734 96.0214663,22.0639826 L89.8874135,22.0639826 C90.2908622,20.7129734 91.5114135,19.7306064 92.9544399,19.7306064 M92.9544399,18.1358725 C90.1459472,18.1358725 87.8694897,20.3450101 87.8694897,23.0694321 C87.8694897,25.7938541 90.1459472,28.0019734 92.9544399,28.0019734 C95.0475425,28.0019734 96.8453724,26.7745239 97.6247155,25.0216064 L95.5190264,25.0216064 C94.9329032,25.8220284 94.002522,26.3403679 92.9544399,26.3403679 C91.3501701,26.3403679 90.0207625,25.1264963 89.784,23.5426248 L96.1245396,23.5426248 L97.6767625,23.5426248 L97.9989091,23.5426248 L98.0148974,23.5426248 C98.0400704,23.3420101 98.0393918,23.2764963 98.0393918,23.0694321 C98.0393918,20.3450101 95.7625924,18.1358725 92.9544399,18.1358725" id="Fill-8" fill="#727475"></path>
                <g id="Group-16" transform="translate(42.181818, 9.687890)" fill="#454342">
                    <path d="M1.80619824,1.73214312 C0.677834604,2.83229908 0.104978299,4.48677615 0.104978299,6.65008807 L0.104978299,18.3230789 L3.82616305,18.3230789 L3.82616305,12.0402073 L9.99559413,12.0402073 L9.99559413,8.49567523 L3.82616305,8.49567523 L3.82616305,6.31063853 C3.82616305,5.40464771 4.04251496,4.74577615 4.48644457,4.2973633 C4.92697243,3.8526844 5.56752375,3.6361156 6.44483754,3.6361156 L9.99559413,3.6361156 L9.99559413,0.0797027523 L6.83467918,0.0797027523 C4.62319531,0.0797027523 2.93184047,0.63606055 1.80619824,1.73214312" id="Fill-10"></path>
                    <path d="M27.946271,1.7232156 C26.817227,2.82337156 26.245051,4.47818807 26.245051,6.64116055 L26.245051,18.3141514 L29.9662358,18.3141514 L29.9662358,12.0312798 L36.1353267,12.0312798 L36.1353267,8.48674771 L29.9662358,8.48674771 L29.9662358,6.30205046 C29.9662358,5.39572018 30.1822475,4.73684862 30.6265173,4.28843578 C31.0663648,3.84409633 31.7075965,3.62718807 32.5845701,3.62718807 L36.1353267,3.62718807 L36.1353267,0.0711146789 L32.9740716,0.0711146789 C30.7636082,0.0711146789 29.0712328,0.627133028 27.946271,1.7232156" id="Fill-12"></path>
                    <path d="M15.4982804,6.7164844 C15.4982804,5.73547523 15.7364035,4.96628257 16.2068669,4.42961284 C16.6565795,3.91636514 17.2658346,3.66754862 18.0693302,3.66754862 C18.7990076,3.66754862 19.3949959,3.9065211 19.8913126,4.39804404 C20.3876293,4.88922752 20.6284739,5.48292477 20.6284739,6.21342018 C20.6284739,7.00264037 20.381166,7.61263119 19.8709021,8.07903486 C19.34499,8.56003486 18.6350428,8.79493394 17.7029607,8.79493394 L15.4982804,8.79493394 L15.4982804,6.7164844 Z M18.1166147,0.0758330275 C16.9668199,0.0758330275 15.9064915,0.342300917 14.9655648,0.868108257 C14.0219167,1.3945945 13.251078,2.15258532 12.6720985,3.12239266 C12.3397466,3.68282385 12.0989021,4.32166789 11.9570487,5.0192367 C11.8202979,5.69372294 11.7532833,6.58579633 11.7532833,7.74671376 L11.7532833,18.2815303 L15.4982804,18.2815303 L15.4982804,12.3975119 L17.9989138,12.3975119 C19.8304211,12.3975119 21.3751601,11.8099248 22.5906088,10.651044 C23.812861,9.48435596 24.4333419,8.00707156 24.4333419,6.26026422 C24.4333419,4.56369541 23.8091191,3.09286055 22.579383,1.88781468 C21.351688,0.685823853 19.8504915,0.0758330275 18.1166147,0.0758330275 L18.1166147,0.0758330275 Z" id="Fill-14"></path>
                </g>
                <g id="Group-19" transform="translate(2.041056, 0.183303)">
                    <mask id="mask-4" fill="white">
                        <use xlink:href="#path-3"></use>
                    </mask>
                    <g id="Clip-18"></g>
                    <path d="M18.0017713,23.1184826 L18.6957302,17.5807028 L19.596176,10.1277486 C19.8230733,8.64401468 20.5544516,7.27942752 21.6539003,6.28416147 C22.8070968,5.24205138 24.2868622,4.66838165 25.8213959,4.66838165 C25.8295601,4.66838165 25.837044,4.66906055 25.8445279,4.66906055 L25.8445279,4.66702385 C29.056129,4.66702385 32.1721408,5.05942752 35.1432375,5.79705138 C34.7717654,5.18264771 34.3394018,4.5974367 33.8478475,4.05024404 C31.6271789,1.57565688 28.4254428,0.156078899 25.0655249,0.156078899 C22.2172317,0.156078899 19.470651,1.17646422 17.3316246,3.02816147 C16.2913666,3.9294 15.4314018,4.98882202 14.7772434,6.17655596 C14.1451965,7.32389541 13.718956,8.56254679 13.5114487,9.85822569 L12.5341232,17.6132899 L11.8418651,23.122556 L11.1159296,29.1342073 C10.9318944,30.330767 10.3423695,31.4316018 9.45519062,32.2340606 C8.52582991,33.0745376 7.33147214,33.5378862 6.09391202,33.5378862 C5.98607625,33.5378862 5.87858065,33.5327945 5.77244575,33.5256661 C3.8293607,33.5076752 1.92335484,33.3457578 0.0632727273,33.0504367 C0.168046921,33.179767 0.275882698,33.3074 0.388480938,33.4316385 C2.23563636,35.483611 4.89853372,36.660822 7.69512023,36.660822 C10.0644457,36.660822 12.3494076,35.8149138 14.1285279,34.2789046 C15.8260059,32.8138404 16.9550499,30.8015835 17.3067918,28.6138312 L18.0017713,23.1184826" id="Fill-17" fill="#B2D234" mask="url(#mask-4)"></path>
                </g>
                <path d="M36.9456598,6.84113028 C35.1223167,6.38864404 33.259173,6.07635046 31.3766393,5.90255229 C31.8239707,6.20975413 32.2362639,6.57568073 32.5995718,6.99829541 C34.8981408,9.67349725 34.6477713,13.7675982 32.0399824,16.1260936 C30.939173,17.1210202 29.5271026,17.6933321 28.0640059,17.7388183 L28.0633255,17.7388183 L21.719044,17.7374606 L21.7057771,17.8287725 L21.025085,23.2599651 L27.476522,23.2620018 C28.8100117,23.2222862 30.1139062,22.9772037 31.3524868,22.5053688 C32.63461,22.0158826 33.8119589,21.3122037 34.8532375,20.4106257 C37.1977302,18.380378 38.5968739,15.5748275 38.7934956,12.5112954 C38.9152786,10.6032495 38.558434,8.73899266 37.775349,7.0468367 L36.9456598,6.84113028 Z" id="Fill-20" fill="#454342"></path>
                <path d="M2.26632023,32.2719771 C3.18683636,32.4179404 4.11891848,32.5292798 5.05576305,32.6070138 C4.79144633,32.4009679 4.54345806,32.1687844 4.32030264,31.909445 C2.46600352,29.7519037 2.66874839,26.4493991 4.77171613,24.5471239 C5.65991554,23.745344 6.8049478,23.3159404 7.98535836,23.2792798 L12.9073642,23.2792798 L12.9213114,23.1560596 L13.603024,17.7418394 L9.43518827,17.7394633 C7.17607977,17.8063349 4.99623226,18.6508853 3.29773372,20.1169679 C1.34750499,21.8006376 0.183082698,24.1272248 0.0197982405,26.668344 C-0.105046334,28.6072798 0.366437537,30.4939404 1.36077185,32.127711 L2.26632023,32.2719771 Z" id="Fill-22" fill="#454342"></path>
            </g>
        </g>
    </g>
</svg>